<svg width="30" height="27" viewBox="0 0 30 27" fill="none" xmlns="http://www.w3.org/2000/svg">
<path d="M4 26V6L16 2V22" stroke="#EA4715" stroke-width="2" stroke-miterlimit="10" stroke-linecap="round" stroke-linejoin="round"/>
<path d="M19 9L26 12V23" stroke="#EA4715" stroke-width="2" stroke-miterlimit="10" stroke-linecap="round" stroke-linejoin="round"/>
<path d="M1 26H29" stroke="#EA4715" stroke-width="2" stroke-miterlimit="10" stroke-linecap="round" stroke-linejoin="round"/>
<path d="M10 1V4" stroke="#EA4715" stroke-width="2" stroke-miterlimit="10" stroke-linecap="round" stroke-linejoin="round"/>
<path d="M11 10C11 9.5 11.4 9 12 9C12.5 9 13 9.5 13 10C13 10.5 12.5 11 12 11C11.4 11 11 10.5 11 10ZM7 10C7 9.5 7.5 9 8 9C8.5 9 9 9.5 9 10C9 10.5 8.5 11 8 11C7.5 11 7 10.5 7 10Z" fill="#EA4715"/>
<path d="M11 15C11 14.5 11.4 14 12 14C12.5 14 13 14.5 13 15C13 15.5 12.5 16 12 16C11.4 16 11 15.5 11 15ZM7 15C7 14.5 7.5 14 8 14C8.5 14 9 14.5 9 15C9 15.5 8.5 16 8 16C7.5 16 7 15.5 7 15Z" fill="#EA4715"/>
<path d="M11 20C11 19.5 11.4 19 12 19C12.5 19 13 19.5 13 20C13 20.5 12.5 21 12 21C11.4 21 11 20.5 11 20ZM7 20C7 19.5 7.5 19 8 19C8.5 19 9 19.5 9 20C9 20.5 8.5 21 8 21C7.5 21 7 20.5 7 20Z" fill="#EA4715"/>
<path d="M20 15H22" stroke="#EA4715" stroke-width="2" stroke-miterlimit="10" stroke-linecap="round" stroke-linejoin="round"/>
<path d="M20 20H22" stroke="#EA4715" stroke-width="2" stroke-miterlimit="10" stroke-linecap="round" stroke-linejoin="round"/>
</svg>
